<svg xmlns="http://www.w3.org/2000/svg" width="239.398" height="71.129" viewBox="0 0 239.398 71.129">
  <g id="Group_836" data-name="Group 836" transform="translate(-205.252 -41.871)">
    <g id="Group_286" data-name="Group 286" transform="translate(205.252 41.871)">
      <path id="Path_2330" data-name="Path 2330" d="M563.2,851.252a3.034,3.034,0,0,0,3.411,2.661,2.844,2.844,0,0,0,2.143-2.309c.285-1.75-1.245-3.762-3.013-3.624A3.009,3.009,0,0,0,563.2,851.252Z" transform="translate(-518.893 -826.272)" fill="#ffd2ad"/>
      <path id="Path_2331" data-name="Path 2331" d="M346.232,756.355c7.219,4.477,10.49,4.3,12.128,3.157,3.085-2.146,1.924-8.776,4.724-9.529,1.409-.379,2.086,1.2,4.2,1.218,2.989.031,6.371-3.079,6.659-5.847.481-4.625-7.457-10.365-14.789-11.288-10.5-1.322-21.118,7.072-25.716,16.2-6.949,13.793-.9,30.745,7.935,40.391,14.911,16.281,45.449,20.143,59.346,4.385,7.151-8.109,13.312-22.784,6.521-31.142-6.911-8.505-25.282-9.278-33.011,6.523Z" transform="translate(-330.413 -733.928)"/>
      <path id="Path_2332" data-name="Path 2332" d="M605.8,909.267c-4.556,4.2-4.635,11.932-.353,15.808a10.4,10.4,0,0,0,11.449,1.241c5.752-2.984,8.31-11.866,4.044-16.746C617.426,905.545,610.154,905.259,605.8,909.267Z" transform="translate(-550.574 -873.583)" fill="#ffd2ad"/>
      <path id="Path_2333" data-name="Path 2333" d="M696.943,963.519a2.026,2.026,0,0,0,2-2.083,1.9,1.9,0,0,0-1.387-1.581,2.123,2.123,0,0,0-2.612,1.753A2.009,2.009,0,0,0,696.943,963.519Z" transform="translate(-625.58 -916.814)" fill="#ffd2ad"/>
      <path id="Path_2334" data-name="Path 2334" d="M599.876,937.107a13.742,13.742,0,0,1-2.706,3.13c-1.13.7,1.112,2.278,1.112,2.278Z" transform="translate(-546.154 -898.446)" fill="#ffd2ad"/>
      <path id="Path_2335" data-name="Path 2335" d="M657.079,889.353q-.12,0-.243-.007a4.823,4.823,0,0,1-3.3-1.654l.391-.346a4.3,4.3,0,0,0,2.934,1.478,3.047,3.047,0,0,0,2.217-.706,2.991,2.991,0,0,0,.523-3.829,2.821,2.821,0,0,0-3.647-.7c-.451.3-1.091,1.032-.891,1.694a1.51,1.51,0,0,0,1.029.89,1.134,1.134,0,0,0,1.01-.081,1.111,1.111,0,0,0,.284-.847l.522,0a1.567,1.567,0,0,1-.477,1.257,1.621,1.621,0,0,1-1.492.174,2.01,2.01,0,0,1-1.376-1.238,2.216,2.216,0,0,1,1.1-2.278,3.37,3.37,0,0,1,4.358.824,3.53,3.53,0,0,1-.594,4.526A3.468,3.468,0,0,1,657.079,889.353Z" transform="translate(-592.055 -854.381)" fill="#e38b93"/>
      <path id="Path_2336" data-name="Path 2336" d="M427.906,965.173c-3.01.67-4.641,5.159-3.27,8.285.841,1.917,3.035,3.833,5.474,3.464,2.812-.426,4.489-3.67,4.194-6.353C433.948,967.327,430.677,964.556,427.906,965.173Z" transform="translate(-406.31 -921.101)" fill="#ffd2ad"/>
      <path id="Path_2337" data-name="Path 2337" d="M373.635,926.152s-6.167,4.455,4.932,23.578c0,0-3.812-11.813,3.846-19.112Z" transform="translate(-364.027 -889.575)" fill="#e38b93"/>
      <path id="Path_2338" data-name="Path 2338" d="M377.386,796.554c1.214,11.6,12.807,20.424,23.48,18.317,7.863-1.552,13.583-8.711,14.755-15.9,1.964-12.046-8.574-25.9-20.742-24.948C384.841,774.812,376.227,785.474,377.386,796.554Z" transform="translate(-368.363 -766.359)" fill="#ffd2ad"/>
      <path id="Path_2339" data-name="Path 2339" d="M365.956,908.6a3.558,3.558,0,0,0,4,3.12,3.335,3.335,0,0,0,2.513-2.708c.334-2.052-1.46-4.411-3.533-4.249A3.529,3.529,0,0,0,365.956,908.6Z" transform="translate(-359.178 -872.247)" fill="#ffd2ad"/>
      <path id="Path_2340" data-name="Path 2340" d="M471.724,892.391c.085.742.6,1.453,1.039,1.469.325.011.544-.357.572-.79.047-.725-.436-1.737-.943-1.845C471.972,891.135,471.643,891.682,471.724,892.391Z" transform="translate(-444.825 -861.286)"/>
      <path id="Path_2341" data-name="Path 2341" d="M543.519,878.2c.085.742.6,1.453,1.039,1.469.325.012.544-.357.572-.79.047-.726-.436-1.737-.943-1.845C543.768,876.941,543.438,877.489,543.519,878.2Z" transform="translate(-502.959 -849.793)"/>
      <path id="Path_2342" data-name="Path 2342" d="M530.018,901.326a.261.261,0,0,1-.089-.506c.654-.235,1.738-.815,1.866-1.367a.608.608,0,0,0-.217-.566c-1.271-1.312-2.514-4.906-2.567-5.059a.261.261,0,1,1,.493-.17c.013.036,1.258,3.637,2.448,4.865a1.1,1.1,0,0,1,.351,1.048c-.234,1.008-2,1.667-2.2,1.74A.261.261,0,0,1,530.018,901.326Z" transform="translate(-491.211 -863.122)"/>
      <path id="Path_2343" data-name="Path 2343" d="M493.63,941a4.918,4.918,0,0,1-4.384-2.033.261.261,0,0,1,.451-.263c.062.1,1.57,2.562,6.008,1.514a.261.261,0,1,1,.12.508A9.551,9.551,0,0,1,493.63,941Z" transform="translate(-458.995 -899.632)" fill="#e38b93"/>
      <path id="Path_2344" data-name="Path 2344" d="M381.158,744.447c3.19,2.118,4.6,11.667.366,18.318-4.734,7.439-17.295,13.723-20.478,11.471-3.741-2.646-.072-17.578,9.258-25.46C370.9,748.271,378.014,742.359,381.158,744.447Z" transform="translate(-354.046 -742.085)"/>
      <path id="Path_2345" data-name="Path 2345" d="M472.243,750.521c-1.823,2.069,1.3,8.463,5.481,12.3,4.682,4.29,11.584,5.932,13.378,3.771,2.108-2.539-.906-12.689-8.868-16.43C481.726,749.922,474.041,748.482,472.243,750.521Z" transform="translate(-444.825 -746.492)"/>
      <path id="Path_2346" data-name="Path 2346" d="M462.586,987.174a43.688,43.688,0,0,0,7.075-11.227c-10.621-8.136-24.014-5.058-35.908,3.758s-26.929,6.514-26.929,6.514h0C422.614,999.535,449.725,1001.756,462.586,987.174Z" transform="translate(-392.284 -926.064)" fill="#e38b93"/>
      <path id="Path_2347" data-name="Path 2347" d="M606.387,777.227s.86-3.84,4.356-2.976,1.613,7.443-5.466,10.167c0,0-7.467-5.881-5.617-9.586S604.557,773.355,606.387,777.227Z" transform="translate(-548.189 -765.514)" fill="#3d9eb5"/>
      <path id="Path_2348" data-name="Path 2348" d="M606.031,939.982a1.633,1.633,0,0,1-1.221-.967.234.234,0,0,1,.444-.147c.013.036.282.749,1.533.722a.234.234,0,0,1,.01.467A2.973,2.973,0,0,1,606.031,939.982Z" transform="translate(-552.588 -899.743)"/>
      <path id="Path_2349" data-name="Path 2349" d="M635,951.78a1.755,1.755,0,0,1-1.313-1.04.251.251,0,0,1,.477-.158c.014.039.3.805,1.647.777a.251.251,0,1,1,.011.5A3.2,3.2,0,0,1,635,951.78Z" transform="translate(-575.966 -909.218)"/>
    </g>
    <g id="Group_287" data-name="Group 287" transform="translate(303.523 68.985)">
      <path id="Path_2350" data-name="Path 2350" d="M370.456,1160.1l1.3-2.891a9.755,9.755,0,0,0,5.472,1.73c2.274,0,3.2-.758,3.2-1.776,0-3.1-9.641-.972-9.641-7.13,0-2.818,2.274-5.163,6.988-5.163a11.129,11.129,0,0,1,5.755,1.468l-1.184,2.914a9.354,9.354,0,0,0-4.6-1.3c-2.274,0-3.151.852-3.151,1.9,0,3.055,9.641.947,9.641,7.034,0,2.772-2.3,5.141-7.035,5.141A11.825,11.825,0,0,1,370.456,1160.1Z" transform="translate(-370.456 -1144.868)" fill="#e38b93"/>
      <path id="Path_2351" data-name="Path 2351" d="M425.006,1162.132l-.024-9.949-4.879,8.2h-1.729l-4.857-7.983v9.736h-3.6V1145.55h3.174l6.206,10.3,6.112-10.3h3.149l.048,16.582Z" transform="translate(-393.493 -1145.266)" fill="#e38b93"/>
      <path id="Path_2352" data-name="Path 2352" d="M472.163,1158.578h-7.7L463,1162.132h-3.932l7.39-16.582h3.79l7.414,16.582h-4.026Zm-1.208-2.914-2.629-6.348-2.63,6.348Z" transform="translate(-422.186 -1145.266)" fill="#e38b93"/>
      <path id="Path_2353" data-name="Path 2353" d="M504.846,1153.444c0-4.928,3.837-8.575,9.072-8.575,5.212,0,9.073,3.624,9.073,8.575s-3.861,8.573-9.073,8.573C508.683,1162.017,504.846,1158.37,504.846,1153.444Zm14.26,0a5.189,5.189,0,1,0-5.188,5.306A5.058,5.058,0,0,0,519.106,1153.444Z" transform="translate(-448.914 -1144.868)" fill="#e38b93"/>
      <path id="Path_2354" data-name="Path 2354" d="M555.653,1148.676h-5.306v-3.126H564.8v3.126H559.49v13.455h-3.837Z" transform="translate(-475.477 -1145.266)" fill="#e38b93"/>
      <path id="Path_2355" data-name="Path 2355" d="M605.244,1145.55v16.582h-3.837v-6.8h-7.533v6.8h-3.837V1145.55h3.837v6.539h7.533v-6.539Z" transform="translate(-498.648 -1145.266)" fill="#e38b93"/>
      <path id="Path_2356" data-name="Path 2356" d="M648.888,1159.051v3.081H636.049V1145.55h12.53v3.08h-8.717v3.6h7.7v2.986h-7.7v3.836Z" transform="translate(-525.51 -1145.266)" fill="#e38b93"/>
      <path id="Path_2357" data-name="Path 2357" d="M684.823,1162.132l-3.2-4.62H678.1v4.62h-3.837V1145.55h7.177c4.43,0,7.2,2.3,7.2,6.018a5.391,5.391,0,0,1-3.411,5.235l3.719,5.329Zm-3.6-13.455H678.1v5.781h3.127c2.346,0,3.53-1.09,3.53-2.889C684.752,1149.743,683.568,1148.676,681.222,1148.676Z" transform="translate(-547.817 -1145.266)" fill="#e38b93"/>
    </g>
  </g>
</svg>
